<svg xmlns="http://www.w3.org/2000/svg" viewBox="0 0 119.77 119.79"><defs><style>.cls-1{fill:none;stroke:#83786f;stroke-miterlimit:10;stroke-width:3px;}</style></defs><title>Asset 5</title><g id="Layer_2" data-name="Layer 2"><g id="Layer_2-2" data-name="Layer 2"><path class="cls-1" d="M95.61,38.08a14,14,0,1,1-14-14A14,14,0,0,1,95.61,38.08Zm-68,42c-7.18,0-15,13-15,13s-12.63,23.29-11,25c2,2,25-11,25-11s13-7.82,13-15S34.79,80.08,27.61,80.08Zm20.5-9.5a61.66,61.66,0,0,0,14,10s29.5-4.5,46-32c12.27-20.45,10-47,10-47a101.8,101.8,0,0,0-43.5,8.5c-25.82,11.22-36.5,46.5-36.5,46.5A61.66,61.66,0,0,0,48.11,70.58Zm1.5-38.5s-11.49-1.51-22,9c-10,10-20,26-19,27s8.94-8.32,19-10c12-2,10-2,10-2M64.06,80.55s0-2-2,10c-1.66,10.06-11,18-10,19s17-9,27-19c10.49-10.53,9-22,9-22"/></g></g></svg>